<?xml version="1.0" encoding="utf-8"?>
<!-- Generator: Adobe Illustrator 16.0.0, SVG Export Plug-In . SVG Version: 6.00 Build 0)  -->
<svg version="1.2" baseProfile="tiny" id="Layer_1" xmlns="http://www.w3.org/2000/svg" xmlns:xlink="http://www.w3.org/1999/xlink"
	 x="0px" y="0px" width="1000px" height="1000px" viewBox="0 0 1000 1000" xml:space="preserve">
<path fill="#ED1C40" d="M585.955,513.462c-1.323,2.002-2.17,3.375-3.095,4.7c-8.617,12.343-18.288,23.614-31.473,31.412
	c-17.669,10.448-36.824,14.755-56.787,10.43c-10.241-2.222-19.773-7.957-29.421-12.531c-2.224-1.047-3.438-1.074-5.416,0.092
	c-8.272,4.881-16.323,10.353-25.083,14.145c-15.552,6.733-31.927,10.507-48.85,6.028c-10.61-2.807-19.785-8.785-28.076-15.973
	c-5.881-5.097-6.259-5.093-12.22-0.188c-10.723,8.824-23.103,14.514-36.055,19.215c-16.07,5.835-32.643,9.409-49.59,11.089
	c-20.677,2.048-39.854-1.464-53.848-18.464c-11.216-13.62-14.216-29.422-7.354-45.847c7.516-17.985,16.207-35.486,24.368-53.197
	c4.256-9.227,8.538-18.445,12.666-27.728c0.755-1.705,1.06-3.695,1.145-5.578c0.164-3.46,0.867-7.25-3.134-9.333
	c-4.089-2.12-8.914-1.738-11.909,2.054c-3.756,4.746-7.082,9.942-9.878,15.313c-9.262,17.779-18.224,35.722-27.259,53.617
	c-6.779,13.419-13.427,26.898-20.265,40.284c-6.481,12.695-18.662,17.532-31.862,12.594c-4.446-1.67-7.235-4.947-7.985-9.937
	c-1.06-7.079,1.262-13.419,3.772-19.756c5.484-13.859,11.04-27.695,16.521-41.56c2.935-7.435,5.873-14.876,8.628-22.379
	c1.931-5.243,2.511-10.809,0.259-15.96c-1.744-3.975-5.174-6.845-9.985-6.418c-5.255,0.465-9.39,3.211-11.371,8.09
	c-6.971,17.209-13.657,34.532-20.515,51.784c-8.201,20.65-16.268,41.356-24.812,61.87c-3.163,7.58-7.934,14.481-15.96,17.726
	c-4.063,1.649-8.664,2.668-13.039,2.728c-13.651,0.181-25.441-4.381-33.494-15.969c-6.401-9.214-7.969-19.47-4.874-30.316
	c2.863-10.044,5.723-20.086,8.726-30.089c2.845-9.479,5.869-18.907,8.821-28.358c2.752-8.799,5.325-17.665,8.309-26.384
	c5.874-17.165,10.608-34.845,19.915-50.589c6.367-10.774,16.682-16.599,28.511-20.213c12.368-3.771,22.903,0.977,33.462,6.231
	c4.005,1.987,7.956,4.111,12.064,5.844c5.735,2.408,10.963,0.883,15.593-2.89c3.792-3.084,7.616-6.167,11.109-9.58
	c8.729-8.521,27.584-10.1,36.799-0.185c2.122,2.284,4.626,4.211,6.97,6.279c4.823,4.261,6.816,4.696,12.398,1.547
	c13.272-7.495,27.021-6.458,40.535-1.653c7.84,2.79,12.534,9.451,15.531,17.339c4.408,11.615,2.56,22.831-1.856,33.748
	c-8.128,20.084-16.977,39.874-24.907,60.032c-4.698,11.961-8.668,24.258-12.043,36.651c-1.377,5.052-1.386,11.042-0.102,16.116
	c1.939,7.684,8.978,10.201,16.092,11.102c10.839,1.376,21.475-0.641,31.856-3.512c8.865-2.443,17.597-5.455,26.257-8.588
	c4.18-1.51,8.073-3.829,12.063-5.855c3.41-1.724,3.674-4.251,1.878-7.427c-3.674-6.482-7.539-12.882-10.772-19.588
	c-6.844-14.172-12.474-28.798-10.972-44.96c1.313-14.146,6.42-26.434,19.475-33.878c19.271-10.983,34.907-7.951,49.07,8.457
	c12.249,14.197,16.288,31.283,11.029,49.592c-2.941,10.237-7.149,20.132-11.166,30.03c-1.111,2.74-0.467,4.497,1.268,6.111
	c8.113,7.577,17.362,13.465,27.631,17.628c3.87,1.578,7.963,2.753,12.066,3.576c8.824,1.771,17.014-0.33,24.365-5.319
	c3.501-2.37,3.578-4.588,1.149-7.898c-16.912-23.065-23.606-48.737-18.524-76.948c1.904-10.561,6.789-20.538,18.126-23.577
	c7.009-1.884,14.929-1.805,22.216-0.876c11.841,1.507,22.565,6.231,29.842,16.427c8.728,12.232,10.955,25.623,7.2,40.247
	c-2.698,10.507-8.208,19.44-14.275,28.12c-2.402,3.441-2.495,6.613,0.78,8.913c5.044,3.546,10.17,7.433,15.87,9.486
	c12.387,4.456,25.239,4.067,37.716,0.056c13.654-4.397,23.25-13.454,28.72-26.894c6.534-16.07,6.615-32.905,6.283-49.802
	c-0.263-13.201-0.724-26.399-1.116-39.605c-0.139-4.717-0.897-4.991-5.393-4.076c-11.843,2.395-23.743,4.51-35.63,6.684
	c-3.748,0.681-7.527,1.144-11.273,1.817c-8.165,1.469-14.902-1.886-15.363-11.436c-0.471-9.625-1.862-19.202-2.854-28.807
	c-0.059-0.541-0.103-1.083-0.131-1.63c-0.552-11.301,2.182-17.447,15.75-16.954c14.011,0.515,28.022,0.975,42.017,1.709
	c6.883,0.359,9.306-1.375,9.758-8.207c0.349-5.302,0.498-10.61,0.827-15.91c0.498-7.951,2.312-9.838,10.387-9.523
	c4.829,0.189,9.681,1.031,14.404,2.093c6.648,1.496,10.135,6.177,10.596,12.792c0.373,5.42,0.216,10.882,0.131,16.319
	c-0.07,3.848,1.124,5.912,5.437,6.348c12.45,1.268,24.854,3,37.276,4.474c5.866,0.699,9.158,3.072,9.951,7.435
	c1.377,7.576-0.262,12.764-5.979,14.834c-7.999,2.892-16.268,5.097-24.533,7.136c-5.788,1.429-11.783,2.039-17.663,3.122
	c-3.948,0.722-6.093,2.796-6.058,7.235c0.147,21.921-0.349,43.864,0.288,65.763c0.33,11.494,2.056,23.005,6.953,33.739
	c3.954,8.696,10.708,12.12,20.103,10.546c13.782-2.313,26.419-7.154,37.424-15.875c6.107-4.839,10.125-10.762,10.43-18.938
	c0.55-14.965,1.288-29.927,2.168-44.868c0.253-4.313,0.742-8.783,2.18-12.806c0.801-2.229,3.728-5.182,5.768-5.239
	c11.257-0.341,22.594-0.455,33.801,0.519c7.049,0.607,11.891,7.204,11.518,14.668c-0.505,10.448-1.854,20.859-2.849,31.285
	c-1.229,12.865-2.36,25.738-3.729,38.587c-1.386,13.004,9.018,19.453,19.309,19.578c8.635,0.104,13.731-3.118,17.401-12.256
	c3.798-9.457,6.055-19.708,7.693-29.82c2.317-14.354,3.415-28.906,5.124-43.362c0.697-5.904,4.383-10.442,8.966-11.428
	c5.298-1.137,12.251,1.012,13.984,5.855c1.455,4.047,1.125,8.992,0.619,13.434c-1.874,16.462-4.574,32.841-6.115,49.339
	c-0.95,10.133,4.729,17.346,14.574,20.341c4.905,1.489,9.994,2.666,15.074,3.253c8.924,1.021,15.242-5.493,17.107-15.635
	c1.576-8.527,1.786-17.307,2.551-25.979c0.898-10.299,1.029-20.73,2.788-30.881c2.589-15.026,12.297-28.659,30.281-33.032
	c10.796-2.628,21.68-2.941,32.458-1.696c16.433,1.892,33.623,13.063,38.878,31.938c3.99,14.353,2.403,28.216-2.29,42.022
	c-5.439,15.998-15.378,28.467-29.26,37.961c-1.281,0.873-2.032,2.535-3.016,3.833c1.742,0.772,3.502,2.234,5.237,2.203
	c16.591-0.253,32.236-4.047,46.563-12.738c3.231-1.956,6.754-3.439,10.169-5.062c3.136-1.485,4.984,0.273,4.111,2.979
	c-1.456,4.535-3.207,9.318-6.107,12.981c-12.276,15.521-29.024,22.963-48.395,24.266c-8.217,0.552-16.556-0.545-24.834-1.002
	c-6.248-0.351-12.483-0.894-18.731-1.316c-3.172-0.208-5.004,1.124-5.796,4.401c-4.975,20.53-7.606,41.404-10.186,62.334
	c-1.628,13.181-4.086,26.313-7.239,39.21c-1.709,6.997-7.173,11.821-14.736,13.039c-4.521,0.729-7.868-1.228-9.384-5.44
	c-1.28-3.556-2.476-7.285-2.78-11.007c-1.491-18.379-0.879-36.712,1.561-55.004c1.236-9.304,2.065-18.661,3.126-27.987
	c0.751-6.486,1.728-12.948,2.338-19.449c0.479-5.25-0.716-6.488-5.742-7.49c-10.396-2.072-20.8-4.111-31.148-6.403
	c-7.034-1.564-12.515,0.927-17.281,5.772c-6.335,6.443-13.332,12.042-21.636,15.659c-10.029,4.377-20.658,3.458-30.975,1.824
	c-14.881-2.371-26.77-10.193-35.219-22.752c-2.626-3.896-4.525-8.291-6.579-12.537c-1.151-2.38-2.188-3.305-4.977-1.882
	c-9.891,5.037-19.744,10.206-29.956,14.519c-11.371,4.807-23.44,6.497-35.525,3.128c-11.78-3.292-20.816-10.878-28.319-20.357
	C591.052,520.015,589.072,517.457,585.955,513.462z M925.271,466.315c-0.13-1.63-0.13-3.271-0.402-4.874
	c-1.506-9.283-10.83-13.44-18.341-7.842c-3.396,2.531-6.482,5.854-8.8,9.412c-7.737,11.86-11.232,25.45-14.726,38.967
	c-0.88,3.394-1.491,6.981-1.421,10.467c0.131,6.49,3.949,8.399,9.387,4.894c11.282-7.281,19.64-17.377,26.694-28.602
	C921.951,481.917,925.463,474.723,925.271,466.315z M482.496,472.864c0.098-6.451-1.406-12.421-6.158-17.062
	c-2.635-2.57-5.927-3.69-9.704-2.512c-4.582,1.419-7.057,4.818-7.401,10.459c-0.668,10.928,4.026,20.316,8.855,29.56
	c2.487,4.761,4.85,4.609,8.065,0.211C480.648,487.368,482.4,480.376,482.496,472.864z M371.095,470.777
	c-1.196-3.951-1.985-8.09-3.692-11.812c-2.178-4.735-7.791-6.865-12.755-5.567c-5.257,1.38-7.333,3.884-6.787,10.355
	c0.479,5.634,1.773,11.253,3.271,16.726c1.101,4.022,2.794,7.964,4.798,11.629c2.694,4.937,5.512,4.984,8.16,0.205
	C367.743,485.733,370.566,478.824,371.095,470.777z"/>
</svg>
